# xmcd CD database file
#
# Track frame offsets:
#	150
#	26976
#	48444
#	79961
#	99577
#	124098
#	149493
#	183998
#	208903
#	237988
#	272995
#
# Disc length: 4127 seconds
#
# Revision: 0
# Processed by: cddbd v1.5.1PL2 Copyright (c) Steve Scherf et al.
# Submitted via: CDex 1.51
#
DISCID=a9101d0b
DTITLE=Mare Mosso - Mare Mosoo
DYEAR=2006
DGENRE=Jazz
TTITLE0=JoJo
TTITLE1=Smatter
TTITLE2=Sinetic
TTITLE3=Las Gatas
TTITLE4=65 Hemenway St.
TTITLE5=Falling Grace
TTITLE6=Site
TTITLE7=On My Way Upstairs
TTITLE8=II Ballo Della Felicita
TTITLE9=Longing
TTITLE10=500 miles high
EXTD=YEAR: 2006
EXTT0=
EXTT1=
EXTT2=
EXTT3=
EXTT4=
EXTT5=
EXTT6=
EXTT7=
EXTT8=
EXTT9=
EXTT10=
PLAYORDER=
